<mxfile host="65bd71144e">
    <diagram id="xYd4pYWsFwGCtO9bfNtv" name="4###">
        <mxGraphModel dx="853" dy="610" grid="1" gridSize="10" guides="1" tooltips="1" connect="1" arrows="1" fold="1" page="1" pageScale="1" pageWidth="850" pageHeight="1100" math="0" shadow="0">
            <root>
                <mxCell id="0"/>
                <mxCell id="1" parent="0"/>
                <mxCell id="is623GOQS07EtLY0oyY9-6" style="edgeStyle=none;html=1;exitX=0.5;exitY=1;exitDx=0;exitDy=0;entryX=0.5;entryY=0;entryDx=0;entryDy=0;fontSize=30;" edge="1" parent="1" source="is623GOQS07EtLY0oyY9-1" target="is623GOQS07EtLY0oyY9-2">
                    <mxGeometry relative="1" as="geometry"/>
                </mxCell>
                <mxCell id="is623GOQS07EtLY0oyY9-1" value="&lt;font style=&quot;font-size: 30px&quot;&gt;@&lt;/font&gt;" style="ellipse;whiteSpace=wrap;html=1;" vertex="1" parent="1">
                    <mxGeometry x="340" y="120" width="120" height="80" as="geometry"/>
                </mxCell>
                <mxCell id="is623GOQS07EtLY0oyY9-7" style="edgeStyle=none;html=1;exitX=0.5;exitY=1;exitDx=0;exitDy=0;entryX=0.5;entryY=0;entryDx=0;entryDy=0;fontSize=30;" edge="1" parent="1" source="is623GOQS07EtLY0oyY9-2" target="is623GOQS07EtLY0oyY9-3">
                    <mxGeometry relative="1" as="geometry"/>
                </mxCell>
                <mxCell id="is623GOQS07EtLY0oyY9-2" value="&#10;&#10;&#10;احصل على قيمة رينج الصوت" style="swimlane;startSize=0;fontSize=30;fillColor=#008a00;fontColor=#00FF00;strokeColor=#005700;backgroundOutline=0;" vertex="1" parent="1">
                    <mxGeometry x="250" y="240" width="300" height="90" as="geometry"/>
                </mxCell>
                <mxCell id="is623GOQS07EtLY0oyY9-8" style="edgeStyle=none;html=1;exitX=0.5;exitY=1;exitDx=0;exitDy=0;fontSize=30;" edge="1" parent="1" source="is623GOQS07EtLY0oyY9-3" target="is623GOQS07EtLY0oyY9-4">
                    <mxGeometry relative="1" as="geometry"/>
                </mxCell>
                <mxCell id="is623GOQS07EtLY0oyY9-3" value="&#10;&#10;&#10;&#10;&#10;عندما يحدث تغيير فى رينج الصوت &#10;يصبح صوت عنصر الاديو&#10;=&#10;قيمة الرينج /100" style="swimlane;startSize=0;fontSize=30;fontColor=#66FF66;" vertex="1" parent="1">
                    <mxGeometry x="220" y="390" width="360" height="200" as="geometry"/>
                </mxCell>
                <mxCell id="is623GOQS07EtLY0oyY9-4" value="#" style="ellipse;whiteSpace=wrap;html=1;fontSize=30;" vertex="1" parent="1">
                    <mxGeometry x="340" y="670" width="120" height="80" as="geometry"/>
                </mxCell>
                <mxCell id="is623GOQS07EtLY0oyY9-5" value="1" style="text;html=1;strokeColor=none;fillColor=none;align=center;verticalAlign=middle;whiteSpace=wrap;rounded=0;fontSize=30;" vertex="1" parent="1">
                    <mxGeometry y="10" width="60" height="30" as="geometry"/>
                </mxCell>
            </root>
        </mxGraphModel>
    </diagram>
</mxfile>